<svg xmlns="http://www.w3.org/2000/svg" width="109.2" height="109.1" viewBox="0 0 109.2 109.1"><g fill="#00ABDF"><path d="M85.7 1.5C82 .6 77.8 0 72.8 0 50.7 0 42.3 9.5 42 24.6v9.1c0 7.7 2.3 13.5 7 17.5 7.8-5.4 15.1-9.4 19.4-11.6-4-.9-5.6-3.1-5.6-7v-7.1c0-5 2.6-7.9 10.1-7.9 7.4 0 10.1 2.9 10.1 7.9v7.1c0 5.1-2.8 7.4-10.1 7.4h-.2c-9.8 3.9-19.4 11.7-21 13 .1.1-.1-.1 0 0-3.7 3.7-6.5 7.7-6.5 13.8 0 10.4 5.9 12.5 16.1 13.6 9.3.9 10.7 1.1 19.2 1.9.4 0 .8.1 1.1.1v-5.2L94.9 86 81.6 97v-5.5c-2.6.4-6.4.5-11.5.5-6.7 0-15.8-.9-24.8-3.1L42 105.2c9.9 2.6 22.6 3.9 30.1 3.9 23.4 0 34.7-5.6 34.7-23.7 0-13-5.6-17.4-18.3-18.4-5.6-.5-8.7-.8-18.7-1.9-1.4-.2-2.5-1.4-2.5-3.1 0-2.2 1.7-3.3 3.3-4.2h2.3c20.8 0 30.8-9.6 30.8-24v-9.1c-.2-3.4-.8-6.8-2-9.8l7.6-2.8V1.5H85.7zM19.7 1.6C-.4 6.6 0 23.6 0 23.6v46.7h20.8V25.1c1.3-9.5 18.5-7.6 18.5-7.6L38.9.9c-6.6-.4-19.2.7-19.2.7"/></g></svg>